<svg id="Layer_1" data-name="Layer 1" xmlns="http://www.w3.org/2000/svg" viewBox="0 0 492 492"><defs><style>.cls-1{fill:#c048ff;fill-rule:evenodd;}</style></defs><title>Artboard 3ldpi</title><path class="cls-1" d="M246.26,287a60.6,60.6,0,0,1-58.46-45.47l-.94-3.67h54.73a2.94,2.94,0,1,0,0-5.87H186.1l-.11-2.82c0-.83-.05-1.66-.05-2.49V205.17h55.65a2.94,2.94,0,0,0,0-5.88H185.94V172.44h55.65a2.94,2.94,0,1,0,0-5.88H185.94V139.71h55.65a2.94,2.94,0,0,0,0-5.88H185.94V122.74a60.32,60.32,0,0,1,120.64,0v104A60.5,60.5,0,0,1,246.26,287Z"/><path class="cls-1" d="M246,339h0l-.67,0c-43.42-1.76-76.08-21.74-90.73-63.33a143.85,143.85,0,0,1-7.63-41,133.32,133.32,0,0,1,.31-18.64,8.8,8.8,0,1,1,17.52,1.66,120.73,120.73,0,0,0-.29,16.47,129,129,0,0,0,6.39,36c12,35.13,38.46,51.35,75.23,51.24h.26c36.76.05,63.24-16.19,75.22-51.31A128.74,128.74,0,0,0,328,234.19a120.32,120.32,0,0,0-.29-16.44,8.8,8.8,0,0,1,17.52-1.67c.18,1.79.28,3.6.36,5.4.19,4.5.15,9-.06,13.54a143.48,143.48,0,0,1-7.72,41c-14.77,41.58-47.58,61.37-91,63H246Z"/><path class="cls-1" d="M237.45,417.86l-.66-87.62c0-5.22,4.5-9,9.58-8.82,4.52.17,11.15,2.76,11,8.17l-2.3,88.33a8.82,8.82,0,0,1-17.63-.06Z"/><path class="cls-1" d="M305.13,431.06H187.4a8.82,8.82,0,0,1,0-17.63H305.13a8.82,8.82,0,0,1,0,17.63Z"/></svg>